<?xml version="1.0" encoding="utf-8"?>
<!-- Generator: Adobe Illustrator 16.0.0, SVG Export Plug-In . SVG Version: 6.00 Build 0)  -->
<!DOCTYPE svg PUBLIC "-//W3C//DTD SVG 1.1//EN" "http://www.w3.org/Graphics/SVG/1.1/DTD/svg11.dtd">
<svg version="1.1"
	 id="Layer_1" xmlns:svg="http://www.w3.org/2000/svg" xmlns:inkscape="http://www.inkscape.org/namespaces/inkscape" xmlns:rdf="http://www.w3.org/1999/02/22-rdf-syntax-ns#" xmlns:cc="http://creativecommons.org/ns#" xmlns:sodipodi="http://sodipodi.sourceforge.net/DTD/sodipodi-0.dtd" xmlns:dc="http://purl.org/dc/elements/1.1/" sodipodi:docname="croneos-logo.svg" inkscape:version="0.92.4 (5da689c313, 2019-01-14)"
	 xmlns="http://www.w3.org/2000/svg" xmlns:xlink="http://www.w3.org/1999/xlink" x="0px" y="0px" width="319.371px" height="48px"
	 viewBox="426.969 596 319.371 48" style="enable-background:new 426.969 596 319.371 48;" xml:space="preserve">
<rect x="291.468" y="674.166" width="629" height="254"/>
<sodipodi:namedview  guidetolerance="10" objecttolerance="10" showgrid="false" gridtolerance="10" borderopacity="1" bordercolor="#666666" inkscape:cy="620" pagecolor="#ffffff" inkscape:zoom="0.68387097" inkscape:cx="620" id="namedview3795" inkscape:pageopacity="0" inkscape:pageshadow="2" inkscape:window-width="454" inkscape:window-height="405" inkscape:window-x="2475" inkscape:window-y="224" inkscape:current-layer="Layer_1" inkscape:window-maximized="0">
	</sodipodi:namedview>
<g id="g3792">
	<g id="g3764">
		
			<sodipodi:namedview  borderopacity="1.0" bordercolor="#666666" inkscape:cy="26.245146" pagecolor="#ffffff" inkscape:zoom="4.9119411" inkscape:cx="37.528038" id="base" inkscape:pageopacity="0.0" inkscape:pageshadow="2" inkscape:window-width="1016" inkscape:window-height="685" inkscape:window-x="0" inkscape:window-y="0">
			</sodipodi:namedview>
		<path id="path705" sodipodi:nodetypes="cccccccccccccccccccccc" sodipodi:stroke-cmyk="(0 0 0 0.8)" style="fill:#FFFFFF;" d="
			M520.286,633.616l4.326,4.531l7.002-4.738l5.562,2.471l1.853,8.12l5.974-0.056l1.648-8.329l5.562-2.206l7.001,4.532l3.295-4.532
			l-7.948-7.5c-20.369,18.683-36.661-11.204-19.165-23.251l-3.37-2.203l-6.385-4.06l-4.411,3.622l3.999,6.822l-2.266,5.562
			l-7.802,1.296l-0.025,5.913l8.034,2.06l2.214,5.405L520.286,633.616z"/>
		<path id="path3759" style="opacity:0.5;fill:#FFFFFF;enable-background:new    ;" d="M541.917,618.044
			c-0.889,0-1.609-0.72-1.609-1.609v-12.397c0-0.888,0.72-1.609,1.609-1.609c0.888,0,1.609,0.721,1.609,1.609v12.397
			C543.526,617.324,542.805,618.044,541.917,618.044z"/>
		<path id="path3761" style="opacity:0.5;fill:#FFFFFF;enable-background:new    ;" d="M551.03,623.226
			c-0.273,0-0.55-0.068-0.803-0.215l-8.556-4.94c-0.771-0.444-1.034-1.428-0.589-2.198c0.444-0.77,1.428-1.032,2.198-0.589
			l8.557,4.94c0.77,0.444,1.033,1.428,0.588,2.199C552.128,622.937,551.587,623.226,551.03,623.226z"/>
		
			<path id="path742" sodipodi:ry="2.33929610" sodipodi:cy="32.28833771" sodipodi:type="arc" sodipodi:cx="29.15122986" sodipodi:rx="2.33929610" sodipodi:stroke-cmyk="(0 0 0 0.8)" style="fill:#FFFFFF;" d="
			M544.531,616.526c0-1.444-1.171-2.614-2.614-2.614c-1.444,0-2.613,1.171-2.613,2.614c-0.006,1.442,1.162,2.616,2.604,2.621
			c1.442,0.006,2.617-1.158,2.623-2.603C544.531,616.539,544.531,616.533,544.531,616.526h-2.614H544.531z"/>
	</g>
	<g id="g3790">
		<g id="g3778">
			<g id="g3768">
				<path id="path3766" style="fill:#3399FF;" d="M466.668,641.612c-2.113,0.958-6.868,1.985-13.057,1.985
					c-17.586,0-26.643-9.929-26.643-23.079c0-15.751,12.378-24.518,27.773-24.518c5.963,0,10.491,1.096,12.529,2.055l-1.805,6.393
					c-0.293,1.042-1.382,1.634-2.417,1.317c0,0-3.703-1.135-7.779-1.135c-9.132,0-16.226,4.999-16.226,15.272
					c0,9.245,6.038,15.067,16.302,15.067c3.472,0,7.674-1.035,7.674-1.035c1.051-0.261,2.095,0.395,2.321,1.454L466.668,641.612z"/>
			</g>
			<g id="g3772">
				<path id="path3770" style="fill:#3399FF;" d="M474.213,597.369c3.698-0.548,9.207-0.958,15.321-0.958
					c7.547,0,12.83,1.027,16.453,3.629c3.019,2.191,4.679,5.411,4.679,9.657c0,5.89-4.603,9.93-8.98,11.368l0,0
					c0,0.113,0.692,0.758,1.54,1.43c0,0,3.968,3.159,5.252,7.406c1.584,5.203,3.17,11.23,4.151,13.011h-9.805
					c-1.083,0-2.298-0.822-2.703-1.824c0,0-1.303-3.243-2.813-8.928c-1.358-5.753-3.547-7.328-8.226-7.397h-1.503
					c-1.083,0-1.969,0.886-1.969,1.97v14.212c0,1.082-0.886,1.968-1.968,1.968h-7.46c-1.083,0-1.968-0.886-1.968-1.968
					L474.213,597.369L474.213,597.369z M485.61,615.262c0,1.082,0.886,1.968,1.969,1.968h0.591c1.082,0,2.82-0.242,3.861-0.538
					c0,0,7.239-2.063,7.239-6.104c0-4.246-3.169-6.368-8.453-6.437c-2.792,0-3.259,0.066-3.259,0.066
					c-1.072,0.152-1.948,1.162-1.948,2.245V615.262z"/>
			</g>
			<g id="g3776">
				<path id="path3774" style="fill:#3399FF;" d="M569.824,642.912c-1.083,0-1.969-0.886-1.969-1.968v-42.223
					c0-1.083,0.886-1.968,1.969-1.968h9.497c1.083,0,2.438,0.75,3.011,1.669l8.48,13.577c0.574,0.918,1.481,2.439,2.016,3.38
					c0,0,5.065,8.905,7.329,14.11l0,0c0.125,0,0.156-0.884,0.071-1.963c0,0-0.824-10.364-0.824-17.281v-11.523
					c0-1.083,0.885-1.969,1.968-1.969h6.629c1.082,0,1.968,0.886,1.968,1.969v42.222c0,1.084-0.886,1.97-1.968,1.97h-8.139
					c-1.082,0-2.429-0.757-2.994-1.682l-8.816-14.444c-0.564-0.926-1.471-2.447-2.016-3.383c0,0-5.35-9.188-7.841-14.598l0,0
					c-0.124,0.038-0.194,0.954-0.155,2.036c0,0,0.381,10.634,0.381,18.167v11.936c0,1.082-0.885,1.968-1.968,1.968h-6.629V642.912z"
					/>
			</g>
		</g>
		<g id="g3782" style="opacity:0.8;">
			<path id="path3780" style="fill:#FFFFFF;" d="M649.209,621.451c0,1.082-0.886,1.968-1.968,1.968h-14.779
				c-1.083,0-1.969,0.886-1.969,1.968v7.023c0,1.082,0.886,1.968,1.969,1.968h16.968c1.082,0,1.97,0.886,1.97,1.968v4.625
				c0,1.082-0.888,1.968-1.97,1.968h-28.517c-1.082,0-1.967-0.886-1.967-1.968v-42.224c0-1.082,0.885-1.968,1.967-1.968h27.46
				c1.084,0,1.97,0.886,1.97,1.968v4.624c0,1.082-0.886,1.968-1.97,1.968h-15.911c-1.083,0-1.969,0.886-1.969,1.968v5.651
				c0,1.083,0.886,1.969,1.969,1.969h14.779c1.082,0,1.968,0.886,1.968,1.969V621.451z"/>
		</g>
		<path id="path3784" style="opacity:0.8;fill:#FFFFFF;" d="M705.812,619.38c0,15.136-10.114,24.313-24.981,24.313
			c-15.094,0-23.923-10.342-23.923-23.491c0-13.834,9.735-24.176,24.754-24.176C697.283,596.026,705.812,606.641,705.812,619.38z
			 M669.058,619.995c0,9.041,4.679,15.409,12.377,15.409c7.773,0,12.226-6.711,12.226-15.683c0-8.286-4.377-15.41-12.301-15.41
			C673.587,604.312,669.058,611.023,669.058,619.995z"/>
		<g id="g3788" style="opacity:0.8;">
			<path id="path3786" style="fill:#FFFFFF;" d="M713.735,632.186c3.095,1.439,7.851,2.878,12.756,2.878
				c5.283,0,8.076-1.988,8.076-5c0-2.878-2.416-4.52-8.529-6.507c-8.453-2.671-13.962-6.917-13.962-13.628
				c0-7.876,7.245-13.903,19.245-13.903c5.734,0,9.963,1.096,12.981,2.329l-1.992,6.54c-0.316,1.036-1.4,1.563-2.41,1.172
				c0,0-3.824-1.479-8.807-1.479c-4.98,0-7.396,2.053-7.396,4.451c0,2.944,2.869,4.246,9.436,6.505
				c8.98,3.014,13.206,7.26,13.206,13.765c0,7.74-6.565,14.315-20.529,14.315c-5.811,0-12.542-2.197-12.542-2.197
				c-1.029-0.336-1.639-1.466-1.356-2.511L713.735,632.186z"/>
		</g>
	</g>
</g>
</svg>
